<mxfile host="app.diagrams.net" agent="Mozilla/5.0 (Macintosh; Intel Mac OS X 10.15; rv:128.0) Gecko/20100101 Firefox/128.0" version="24.7.6">
  <diagram name="Page-1" id="bbkfeE0ZKGbeMulcRJ6j">
    <mxGraphModel dx="2924" dy="1129" grid="1" gridSize="10" guides="1" tooltips="1" connect="1" arrows="1" fold="1" page="1" pageScale="1" pageWidth="850" pageHeight="1100" math="0" shadow="0">
      <root>
        <mxCell id="0" />
        <mxCell id="1" parent="0" />
        <mxCell id="udor24Wlc1t1U40zxqAk-22" value="" style="endArrow=none;dashed=1;html=1;rounded=0;strokeWidth=2;" edge="1" parent="1">
          <mxGeometry width="50" height="50" relative="1" as="geometry">
            <mxPoint x="360" y="720" as="sourcePoint" />
            <mxPoint x="360" y="80" as="targetPoint" />
          </mxGeometry>
        </mxCell>
        <mxCell id="udor24Wlc1t1U40zxqAk-3" value="" style="shape=image;html=1;verticalAlign=top;verticalLabelPosition=bottom;labelBackgroundColor=#ffffff;imageAspect=0;aspect=fixed;image=https://cdn0.iconfinder.com/data/icons/phosphor-thin-vol-3/256/hexagon-thin-128.png" vertex="1" parent="1">
          <mxGeometry x="61" y="100" width="600" height="600" as="geometry" />
        </mxCell>
        <mxCell id="udor24Wlc1t1U40zxqAk-2" value="" style="shape=image;html=1;verticalAlign=top;verticalLabelPosition=bottom;labelBackgroundColor=#ffffff;imageAspect=0;aspect=fixed;image=https://cdn0.iconfinder.com/data/icons/phosphor-thin-vol-3/256/hexagon-thin-128.png" vertex="1" parent="1">
          <mxGeometry x="196" y="235" width="330" height="330" as="geometry" />
        </mxCell>
        <mxCell id="udor24Wlc1t1U40zxqAk-1" value="" style="shape=image;html=1;verticalAlign=top;verticalLabelPosition=bottom;labelBackgroundColor=#ffffff;imageAspect=0;aspect=fixed;image=https://cdn0.iconfinder.com/data/icons/phosphor-thin-vol-3/256/hexagon-thin-128.png;imageBackground=default;" vertex="1" parent="1">
          <mxGeometry x="297" y="336" width="128" height="128" as="geometry" />
        </mxCell>
        <mxCell id="udor24Wlc1t1U40zxqAk-8" value="Application&lt;br&gt;&lt;div&gt;Core&lt;/div&gt;" style="shape=image;html=1;verticalAlign=top;verticalLabelPosition=bottom;labelBackgroundColor=none;imageAspect=0;aspect=fixed;image=https://cdn0.iconfinder.com/data/icons/business-startup-10/50/69-128.png" vertex="1" parent="1">
          <mxGeometry x="339" y="365" width="40" height="40" as="geometry" />
        </mxCell>
        <mxCell id="udor24Wlc1t1U40zxqAk-12" value="" style="sketch=0;html=1;verticalAlign=top;labelPosition=center;verticalLabelPosition=bottom;align=center;spacingTop=-6;fontSize=11;fontStyle=1;fontColor=#999999;shape=image;aspect=fixed;imageAspect=0;image=data:image/svg+xml,PHN2ZyB4bWxucz0iaHR0cDovL3d3dy53My5vcmcvMjAwMC9zdmciIGhlaWdodD0iMzY3LjgxODMyODg1NzQyMTkiIHZpZXdCb3g9IjcuMTA1NDI3MzU3NjAxMDAyZS0xNSAwIDM2Ni40MTAxODY3Njc1NzgxIDM2Ny44MTgzMjg4NTc0MjE5IiBwcmVzZXJ2ZUFzcGVjdFJhdGlvPSJ4TWlkWU1pZCBtZWV0IiB3aWR0aD0iMzY2LjQxMDE5Njc2NzU3OTEiIHZlcnNpb249IjEuMSIgaWQ9InN2Zzk4NyIgem9vbUFuZFBhbj0ibWFnbmlmeSI+JiN4YTsgIDxwYXRoIGQ9Im0gNDguMjUxOTYsMTExLjUzOTA2IGMgLTcuNjE4NjQsMmUtNCAtMTMuNzk0NzIsNi4xNzYyOCAtMTMuNzk0OTMsMTMuNzk0OTIgMi4xZS00LDcuNjE4NjQgNi4xNzYyOSwxMy43OTQ3MiAxMy43OTQ5MywxMy43OTQ5MiBoIDE0NS4xNDY5MiB2IC0yNy41ODk4NCB6IG0gMjM4LjYwODU5LDU3LjQ1MTE3IGggNjUuNzU0NjkgYyA3LjYxODY0LC0yLjFlLTQgMTMuNzk0NzEsLTYuMTc2MjggMTMuNzk0OTIsLTEzLjc5NDkyIC0yLjFlLTQsLTcuNjE4NjQgLTYuMTc2MjgsLTEzLjc5NDcxIC0xMy43OTQ5MiwtMTMuNzk0OTIgSCAyODQuODUwNiBaIE0gMTMuNzk0OTIsMTcwLjk3NDYxIEMgNi4xNzYyODAxLDE3MC45NzQ4MiAyLjEwMDkxOWUtNCwxNzcuMTUwODkgOS4xODk5MjFlLTgsMTg0Ljc2OTUzIC04LjY5OTA4MWUtNCwxOTIuMzg4OTMgNi4xNzU1MjAxLDE5OC41NjYxOSAxMy43OTQ5MiwxOTguNTY2NCBIIDE5My4zOTg4OCBWIDE3MC45NzQ2MSBaIE0gMjg0LjMwNzgsMjI3LjU2NjQgaCA2OC4zMDc0NCBjIDcuNjE4NjQsLTIuMWUtNCAxMy43OTQ3MSwtNi4xNzYyOCAxMy43OTQ5MiwtMTMuNzk0OTIgLTIuMWUtNCwtNy42MTg2NCAtNi4xNzYyOCwtMTMuNzk0NzEgLTEzLjc5NDkyLC0xMy43OTQ5MiBoIC02NS45MjE3OCB6IG0gLTIzNi4wNTU4NCwxLjY5NzI3IGMgLTcuNjE4NjQsMmUtNCAtMTMuNzk0NzIsNi4xNzYyOCAtMTMuNzk0OTMsMTMuNzk0OTIgMi4xZS00LDcuNjE4NjQgNi4xNzYyOSwxMy43OTQ3MiAxMy43OTQ5MywxMy43OTQ5MiBIIDE5My4zOTg4OCBWIDIyOS4yNjM2NyBaIE0gMTg5LjUyMTQ5LDAgYyAtMjQuNTc0MTEsMCAtNDkuMTY3MzcsMjAuMDU1MDcgLTU5LjQzNzUsNzUuMzczMDQgaCAzMC41ODAwNyBjIDQuNjE2MzMsLTI0LjE2MjA2IDE1LjM0ODk2LC00Ny41MjE0OCAyNy44NTM1MiwtNDcuNTIxNDggMTIuMTU4OCwwIDM5LjQ1ODk4LDU3LjQ1MDQ0IDM5LjQ1ODk4LDE2MC40MTQwNiAwLDY5LjkxNTEzIC0xOS41NzgwOSwxNTIuMTE1MjQgLTQxLjE3MTg3LDE1Mi4xMTUyMyAtMTUuMjY4ODEsMmUtNSAtMjEuMjE2NjgsLTI4LjMzMzU2IC0yNS40NDMzNiwtNDYuNzE4NzQgbCAtMzAuNDE0MDYsLTAuMDY4NCBjIDQuMjIwNzQsMjAuNTQwODcgMTYuOTA3NjgsNzQuMjI0NiA1Ny43MTI4OSw3NC4yMjQ2IDUzLjQzNjcyLDAgNjguOTEyMTEsLTExMS45OTMwNSA2OC45MTIxMSwtMTgwLjQ2Mjg5IEMgMjU3LjU3MjI3LDkzLjgwMDc2IDIzNi41ODM0LDAgMTg5LjUyMTQ5LDAgWiIgc3R5bGU9ImNvbG9yOiMwMDAwMDA7b3BhY2l0eToxO2ZpbGw6IzQyODVmNDtmaWxsLW9wYWNpdHk6MTtzdHJva2UtbGluZWNhcDpyb3VuZDstaW5rc2NhcGUtc3Ryb2tlOm5vbmUiLz4mI3hhOzwvc3ZnPg==;" vertex="1" parent="1">
          <mxGeometry x="100" y="359.5" width="81" height="81" as="geometry" />
        </mxCell>
        <mxCell id="udor24Wlc1t1U40zxqAk-16" value="" style="shape=image;editableCssRules=.*;verticalLabelPosition=bottom;labelBackgroundColor=default;verticalAlign=top;aspect=fixed;imageAspect=0;image=data:image/svg+xml,PHN2ZyB4bWxucz0iaHR0cDovL3d3dy53My5vcmcvMjAwMC9zdmciIHZpZXdCb3g9Ii0wLjUgLTAuNSAyOCAyNy44OSIgaGVpZ2h0PSIyNy44OSIgd2lkdGg9IjI4Ij4mI3hhOwkgIDxzdHlsZSB0eXBlPSJ0ZXh0L2NzcyI+LnN0MCB7IHN0b3AtY29sb3I6IHJnYig5MSwgMTE1LCAxMzkpOyB9IC5zdDEgeyBzdG9wLWNvbG9yOiByZ2IoMzQsIDUzLCA3Mik7IH0gPC9zdHlsZT4mI3hhOwk8ZGVmcz4mI3hhOwkJPGxpbmVhckdyYWRpZW50IGdyYWRpZW50VW5pdHM9InVzZXJTcGFjZU9uVXNlIiB5Mj0iMjQuOTU0IiB4Mj0iMjUuMjEyIiB5MT0iMy42MjUiIHgxPSIzLjM3OSIgaWQ9IkEiPiYjeGE7CQkJPHN0b3AgY2xhc3M9InN0MCIvPiYjeGE7CQkJPHN0b3AgY2xhc3M9InN0MSIgb2Zmc2V0PSIxIi8+JiN4YTsJCTwvbGluZWFyR3JhZGllbnQ+JiN4YTsJPC9kZWZzPiYjeGE7CTxwYXRoIGZpbGw9InVybCgjQSkiIGQ9Ik0tLjA2MiAyNS4wMzNjLS4yOTEuMjkzLS40MzguNjAzLS40MzguOTMxLjAwMi4xODYuMDQyLjM2OS4xMTcuNTM5cy4xODUuMzIyLjMyMS40NDhjLjEyNi4xMzcuMjc5LjI0Ni40NDguMzIxcy4zNTMuMTE1LjUzOS4xMTdjLjMyOCAwIC42MzgtLjE0Ny45MzEtLjQzOGwzLjg5MS0zLjg5MWMxLjEzMy45ODcgMi40MTEgMS40NiAzLjgzNSAxLjQyNSAxLjQyNi0uMDc0IDIuNjY3LS42NCAzLjcyNi0xLjcwMWwxLjI2MS0xLjI1OWMuMjkzLS4yOTMuNDM4LS42MDMuNDM4LS45MzEgMC0uMzY2LS4xNDYtLjY5NC0uNDM4LS45ODdsLTcuMTI0LTcuMTIyYTEuMzYgMS4zNiAwIDAgMC0uOTg1LS40MzhjLS4zNjUgMC0uNjk0LjE0Ni0uOTg3LjQzOGwtMS4yNTkgMS4yNTljLTEuMDU5IDEuMDYxLTEuNjA4IDIuMjg1LTEuNjQ1IDMuNjcyLS4wNzIgMS4zNTIuMzQ3IDIuNTc2IDEuMjYxIDMuNjcyem0xMS4yOS00LjMyOWMtLjU4Ni41NDktMS4yNDMuODIyLTEuOTczLjgyMnMtMS4zODktLjI3My0xLjk3My0uODIybC0xLjA5Ni0xLjA5NmMtLjU0OS0uNTg0LS44MjItMS4yNDEtLjgyMi0xLjk3M3MuMjc0LTEuMzg3LjgyMi0xLjk3M2wuMjcyLS4yNzRMMTEuNSAyMC40M2wtLjI3NC4yNzN6bTIuNjMtNC44NzZjLjEyNi4xMzYuMjc4LjI0NS40NDcuMzIxYTEuMzYgMS4zNiAwIDAgMCAuNTM4LjExN2MuMzMgMCAuNjQtLjE0NS45MzMtLjQzOGwyLjUxOC0yLjUyMSAxLjA5NiAxLjA5NmMuMTI2LjEzNi4yNzkuMjQ2LjQ0OC4zMjFzLjM1My4xMTUuNTM5LjExN2ExLjI1IDEuMjUgMCAwIDAgLjk4Ni0uNDM4bDEuMjYxLTEuMjA1YzEuMDU5LTEuMDU5IDEuNjI1LTIuMjY1IDEuNjk5LTMuNjE3YTUuNjcgNS42NyAwIDAgMC0xLjE1Mi0zLjc4bDMuODkxLTMuODkxQTEuMzYgMS4zNiAwIDAgMCAyNy41LjkyNGMwLS4zNjUtLjE0NS0uNjk0LS40MzgtLjk4N1MyNi40NTgtLjUgMjYuMTMxLS41Yy0uMzY2IDAtLjY5NC4xNDctLjk4Ny40MzhsLTMuODg5IDMuODkzYy0xLjA3MS0uODk0LTIuNDQzLTEuMzQ2LTMuODM2LTEuMjYyLTEuNDI2LjA3NC0yLjY2NS42NC0zLjcyNiAxLjcwMWwtMS4yNjEgMS4yNTljLS4xMjguMTMtLjIyOC4yODQtLjI5NC40NTRzLS4wOTcuMzUxLS4wOS41MzNjLS4wMDMuMTczLjAzLjM0NS4wOTcuNTA1cy4xNjUuMzA0LjI4OS40MjVsMS4xNDkgMS4xNTItMi41MiAyLjQ2NWMtLjI5My4yOTMtLjQzOC42MjEtLjQzOC45ODdhMS4zNiAxLjM2IDAgMCAwIC4xMTcuNTM4Yy4wNzUuMTY5LjE4NS4zMjIuMzIxLjQ0Ny4xMjYuMTM2LjI3OS4yNDYuNDQ4LjMyMWExLjM2IDEuMzYgMCAwIDAgLjUzOS4xMTdjLjE4NS0uMDAyLjM2OC0uMDQyLjUzOC0uMTE3cy4zMjItLjE4NS40NDctLjMyMWwyLjQ2NS0yLjUyMS44NzcuODc3LTIuNTE4IDIuNDY1Yy0uMjkzLjI5My0uNDM4LjYyMS0uNDM4Ljk4N2ExLjM2IDEuMzYgMCAwIDAgLjExNy41MzhjLjA3NS4xNjkuMTg0LjMyMi4zMjEuNDQ3em0xLjUzNC05LjMxNmwuMjc0LS4zMjhhMi42OSAyLjY5IDAgMCAxIDEuOTczLS44MjJjLjczMSAwIDEuMzY5LjI3NCAxLjkxOC44MjJsMS4wOTYgMS4xNWMuNTg0LjU0OS44NzcgMS4yMDYuODc3IDEuOTczIDAgLjczMS0uMjkzIDEuMzcxLS44NzcgMS45MThsLS4yNzMuMjc0LTQuOTg3LTQuOTg1eiIvPiYjeGE7PC9zdmc+;rotation=-195;" vertex="1" parent="1">
          <mxGeometry x="263" y="464" width="70" height="70" as="geometry" />
        </mxCell>
        <mxCell id="udor24Wlc1t1U40zxqAk-17" value="" style="shape=image;editableCssRules=.*;verticalLabelPosition=bottom;labelBackgroundColor=default;verticalAlign=top;aspect=fixed;imageAspect=0;image=data:image/svg+xml,PHN2ZyB4bWxucz0iaHR0cDovL3d3dy53My5vcmcvMjAwMC9zdmciIHZpZXdCb3g9Ii0wLjUgLTAuNSAyOCAyNy44OSIgaGVpZ2h0PSIyNy44OSIgd2lkdGg9IjI4Ij4mI3hhOwkgIDxzdHlsZSB0eXBlPSJ0ZXh0L2NzcyI+LnN0MCB7IHN0b3AtY29sb3I6IHJnYig5MSwgMTE1LCAxMzkpOyB9IC5zdDEgeyBzdG9wLWNvbG9yOiByZ2IoMzQsIDUzLCA3Mik7IH0gPC9zdHlsZT4mI3hhOwk8ZGVmcz4mI3hhOwkJPGxpbmVhckdyYWRpZW50IGdyYWRpZW50VW5pdHM9InVzZXJTcGFjZU9uVXNlIiB5Mj0iMjQuOTU0IiB4Mj0iMjUuMjEyIiB5MT0iMy42MjUiIHgxPSIzLjM3OSIgaWQ9IkEiPiYjeGE7CQkJPHN0b3AgY2xhc3M9InN0MCIvPiYjeGE7CQkJPHN0b3AgY2xhc3M9InN0MSIgb2Zmc2V0PSIxIi8+JiN4YTsJCTwvbGluZWFyR3JhZGllbnQ+JiN4YTsJPC9kZWZzPiYjeGE7CTxwYXRoIGZpbGw9InVybCgjQSkiIGQ9Ik0tLjA2MiAyNS4wMzNjLS4yOTEuMjkzLS40MzguNjAzLS40MzguOTMxLjAwMi4xODYuMDQyLjM2OS4xMTcuNTM5cy4xODUuMzIyLjMyMS40NDhjLjEyNi4xMzcuMjc5LjI0Ni40NDguMzIxcy4zNTMuMTE1LjUzOS4xMTdjLjMyOCAwIC42MzgtLjE0Ny45MzEtLjQzOGwzLjg5MS0zLjg5MWMxLjEzMy45ODcgMi40MTEgMS40NiAzLjgzNSAxLjQyNSAxLjQyNi0uMDc0IDIuNjY3LS42NCAzLjcyNi0xLjcwMWwxLjI2MS0xLjI1OWMuMjkzLS4yOTMuNDM4LS42MDMuNDM4LS45MzEgMC0uMzY2LS4xNDYtLjY5NC0uNDM4LS45ODdsLTcuMTI0LTcuMTIyYTEuMzYgMS4zNiAwIDAgMC0uOTg1LS40MzhjLS4zNjUgMC0uNjk0LjE0Ni0uOTg3LjQzOGwtMS4yNTkgMS4yNTljLTEuMDU5IDEuMDYxLTEuNjA4IDIuMjg1LTEuNjQ1IDMuNjcyLS4wNzIgMS4zNTIuMzQ3IDIuNTc2IDEuMjYxIDMuNjcyem0xMS4yOS00LjMyOWMtLjU4Ni41NDktMS4yNDMuODIyLTEuOTczLjgyMnMtMS4zODktLjI3My0xLjk3My0uODIybC0xLjA5Ni0xLjA5NmMtLjU0OS0uNTg0LS44MjItMS4yNDEtLjgyMi0xLjk3M3MuMjc0LTEuMzg3LjgyMi0xLjk3M2wuMjcyLS4yNzRMMTEuNSAyMC40M2wtLjI3NC4yNzN6bTIuNjMtNC44NzZjLjEyNi4xMzYuMjc4LjI0NS40NDcuMzIxYTEuMzYgMS4zNiAwIDAgMCAuNTM4LjExN2MuMzMgMCAuNjQtLjE0NS45MzMtLjQzOGwyLjUxOC0yLjUyMSAxLjA5NiAxLjA5NmMuMTI2LjEzNi4yNzkuMjQ2LjQ0OC4zMjFzLjM1My4xMTUuNTM5LjExN2ExLjI1IDEuMjUgMCAwIDAgLjk4Ni0uNDM4bDEuMjYxLTEuMjA1YzEuMDU5LTEuMDU5IDEuNjI1LTIuMjY1IDEuNjk5LTMuNjE3YTUuNjcgNS42NyAwIDAgMC0xLjE1Mi0zLjc4bDMuODkxLTMuODkxQTEuMzYgMS4zNiAwIDAgMCAyNy41LjkyNGMwLS4zNjUtLjE0NS0uNjk0LS40MzgtLjk4N1MyNi40NTgtLjUgMjYuMTMxLS41Yy0uMzY2IDAtLjY5NC4xNDctLjk4Ny40MzhsLTMuODg5IDMuODkzYy0xLjA3MS0uODk0LTIuNDQzLTEuMzQ2LTMuODM2LTEuMjYyLTEuNDI2LjA3NC0yLjY2NS42NC0zLjcyNiAxLjcwMWwtMS4yNjEgMS4yNTljLS4xMjguMTMtLjIyOC4yODQtLjI5NC40NTRzLS4wOTcuMzUxLS4wOS41MzNjLS4wMDMuMTczLjAzLjM0NS4wOTcuNTA1cy4xNjUuMzA0LjI4OS40MjVsMS4xNDkgMS4xNTItMi41MiAyLjQ2NWMtLjI5My4yOTMtLjQzOC42MjEtLjQzOC45ODdhMS4zNiAxLjM2IDAgMCAwIC4xMTcuNTM4Yy4wNzUuMTY5LjE4NS4zMjIuMzIxLjQ0Ny4xMjYuMTM2LjI3OS4yNDYuNDQ4LjMyMWExLjM2IDEuMzYgMCAwIDAgLjUzOS4xMTdjLjE4NS0uMDAyLjM2OC0uMDQyLjUzOC0uMTE3cy4zMjItLjE4NS40NDctLjMyMWwyLjQ2NS0yLjUyMS44NzcuODc3LTIuNTE4IDIuNDY1Yy0uMjkzLjI5My0uNDM4LjYyMS0uNDM4Ljk4N2ExLjM2IDEuMzYgMCAwIDAgLjExNy41MzhjLjA3NS4xNjkuMTg0LjMyMi4zMjEuNDQ3em0xLjUzNC05LjMxNmwuMjc0LS4zMjhhMi42OSAyLjY5IDAgMCAxIDEuOTczLS44MjJjLjczMSAwIDEuMzY5LjI3NCAxLjkxOC44MjJsMS4wOTYgMS4xNWMuNTg0LjU0OS44NzcgMS4yMDYuODc3IDEuOTczIDAgLjczMS0uMjkzIDEuMzcxLS44NzcgMS45MThsLS4yNzMuMjc0LTQuOTg3LTQuOTg1eiIvPiYjeGE7PC9zdmc+;rotation=-135;" vertex="1" parent="1">
          <mxGeometry x="206" y="365" width="70" height="70" as="geometry" />
        </mxCell>
        <mxCell id="udor24Wlc1t1U40zxqAk-18" value="" style="shape=image;editableCssRules=.*;verticalLabelPosition=bottom;labelBackgroundColor=default;verticalAlign=top;aspect=fixed;imageAspect=0;image=data:image/svg+xml,PHN2ZyB4bWxucz0iaHR0cDovL3d3dy53My5vcmcvMjAwMC9zdmciIHZpZXdCb3g9Ii0wLjUgLTAuNSAyOCAyNy44OSIgaGVpZ2h0PSIyNy44OSIgd2lkdGg9IjI4Ij4mI3hhOwkgIDxzdHlsZSB0eXBlPSJ0ZXh0L2NzcyI+LnN0MCB7IHN0b3AtY29sb3I6IHJnYig5MSwgMTE1LCAxMzkpOyB9IC5zdDEgeyBzdG9wLWNvbG9yOiByZ2IoMzQsIDUzLCA3Mik7IH0gPC9zdHlsZT4mI3hhOwk8ZGVmcz4mI3hhOwkJPGxpbmVhckdyYWRpZW50IGdyYWRpZW50VW5pdHM9InVzZXJTcGFjZU9uVXNlIiB5Mj0iMjQuOTU0IiB4Mj0iMjUuMjEyIiB5MT0iMy42MjUiIHgxPSIzLjM3OSIgaWQ9IkEiPiYjeGE7CQkJPHN0b3AgY2xhc3M9InN0MCIvPiYjeGE7CQkJPHN0b3AgY2xhc3M9InN0MSIgb2Zmc2V0PSIxIi8+JiN4YTsJCTwvbGluZWFyR3JhZGllbnQ+JiN4YTsJPC9kZWZzPiYjeGE7CTxwYXRoIGZpbGw9InVybCgjQSkiIGQ9Ik0tLjA2MiAyNS4wMzNjLS4yOTEuMjkzLS40MzguNjAzLS40MzguOTMxLjAwMi4xODYuMDQyLjM2OS4xMTcuNTM5cy4xODUuMzIyLjMyMS40NDhjLjEyNi4xMzcuMjc5LjI0Ni40NDguMzIxcy4zNTMuMTE1LjUzOS4xMTdjLjMyOCAwIC42MzgtLjE0Ny45MzEtLjQzOGwzLjg5MS0zLjg5MWMxLjEzMy45ODcgMi40MTEgMS40NiAzLjgzNSAxLjQyNSAxLjQyNi0uMDc0IDIuNjY3LS42NCAzLjcyNi0xLjcwMWwxLjI2MS0xLjI1OWMuMjkzLS4yOTMuNDM4LS42MDMuNDM4LS45MzEgMC0uMzY2LS4xNDYtLjY5NC0uNDM4LS45ODdsLTcuMTI0LTcuMTIyYTEuMzYgMS4zNiAwIDAgMC0uOTg1LS40MzhjLS4zNjUgMC0uNjk0LjE0Ni0uOTg3LjQzOGwtMS4yNTkgMS4yNTljLTEuMDU5IDEuMDYxLTEuNjA4IDIuMjg1LTEuNjQ1IDMuNjcyLS4wNzIgMS4zNTIuMzQ3IDIuNTc2IDEuMjYxIDMuNjcyem0xMS4yOS00LjMyOWMtLjU4Ni41NDktMS4yNDMuODIyLTEuOTczLjgyMnMtMS4zODktLjI3My0xLjk3My0uODIybC0xLjA5Ni0xLjA5NmMtLjU0OS0uNTg0LS44MjItMS4yNDEtLjgyMi0xLjk3M3MuMjc0LTEuMzg3LjgyMi0xLjk3M2wuMjcyLS4yNzRMMTEuNSAyMC40M2wtLjI3NC4yNzN6bTIuNjMtNC44NzZjLjEyNi4xMzYuMjc4LjI0NS40NDcuMzIxYTEuMzYgMS4zNiAwIDAgMCAuNTM4LjExN2MuMzMgMCAuNjQtLjE0NS45MzMtLjQzOGwyLjUxOC0yLjUyMSAxLjA5NiAxLjA5NmMuMTI2LjEzNi4yNzkuMjQ2LjQ0OC4zMjFzLjM1My4xMTUuNTM5LjExN2ExLjI1IDEuMjUgMCAwIDAgLjk4Ni0uNDM4bDEuMjYxLTEuMjA1YzEuMDU5LTEuMDU5IDEuNjI1LTIuMjY1IDEuNjk5LTMuNjE3YTUuNjcgNS42NyAwIDAgMC0xLjE1Mi0zLjc4bDMuODkxLTMuODkxQTEuMzYgMS4zNiAwIDAgMCAyNy41LjkyNGMwLS4zNjUtLjE0NS0uNjk0LS40MzgtLjk4N1MyNi40NTgtLjUgMjYuMTMxLS41Yy0uMzY2IDAtLjY5NC4xNDctLjk4Ny40MzhsLTMuODg5IDMuODkzYy0xLjA3MS0uODk0LTIuNDQzLTEuMzQ2LTMuODM2LTEuMjYyLTEuNDI2LjA3NC0yLjY2NS42NC0zLjcyNiAxLjcwMWwtMS4yNjEgMS4yNTljLS4xMjguMTMtLjIyOC4yODQtLjI5NC40NTRzLS4wOTcuMzUxLS4wOS41MzNjLS4wMDMuMTczLjAzLjM0NS4wOTcuNTA1cy4xNjUuMzA0LjI4OS40MjVsMS4xNDkgMS4xNTItMi41MiAyLjQ2NWMtLjI5My4yOTMtLjQzOC42MjEtLjQzOC45ODdhMS4zNiAxLjM2IDAgMCAwIC4xMTcuNTM4Yy4wNzUuMTY5LjE4NS4zMjIuMzIxLjQ0Ny4xMjYuMTM2LjI3OS4yNDYuNDQ4LjMyMWExLjM2IDEuMzYgMCAwIDAgLjUzOS4xMTdjLjE4NS0uMDAyLjM2OC0uMDQyLjUzOC0uMTE3cy4zMjItLjE4NS40NDctLjMyMWwyLjQ2NS0yLjUyMS44NzcuODc3LTIuNTE4IDIuNDY1Yy0uMjkzLjI5My0uNDM4LjYyMS0uNDM4Ljk4N2ExLjM2IDEuMzYgMCAwIDAgLjExNy41MzhjLjA3NS4xNjkuMTg0LjMyMi4zMjEuNDQ3em0xLjUzNC05LjMxNmwuMjc0LS4zMjhhMi42OSAyLjY5IDAgMCAxIDEuOTczLS44MjJjLjczMSAwIDEuMzY5LjI3NCAxLjkxOC44MjJsMS4wOTYgMS4xNWMuNTg0LjU0OS44NzcgMS4yMDYuODc3IDEuOTczIDAgLjczMS0uMjkzIDEuMzcxLS44NzcgMS45MThsLS4yNzMuMjc0LTQuOTg3LTQuOTg1eiIvPiYjeGE7PC9zdmc+;rotation=-75;" vertex="1" parent="1">
          <mxGeometry x="387" y="466" width="70" height="70" as="geometry" />
        </mxCell>
        <mxCell id="udor24Wlc1t1U40zxqAk-19" value="" style="shape=image;editableCssRules=.*;verticalLabelPosition=bottom;labelBackgroundColor=default;verticalAlign=top;aspect=fixed;imageAspect=0;image=data:image/svg+xml,PHN2ZyB4bWxucz0iaHR0cDovL3d3dy53My5vcmcvMjAwMC9zdmciIHZpZXdCb3g9Ii0wLjUgLTAuNSAyOCAyNy44OSIgaGVpZ2h0PSIyNy44OSIgd2lkdGg9IjI4Ij4mI3hhOwkgIDxzdHlsZSB0eXBlPSJ0ZXh0L2NzcyI+LnN0MCB7IHN0b3AtY29sb3I6IHJnYig5MSwgMTE1LCAxMzkpOyB9IC5zdDEgeyBzdG9wLWNvbG9yOiByZ2IoMzQsIDUzLCA3Mik7IH0gPC9zdHlsZT4mI3hhOwk8ZGVmcz4mI3hhOwkJPGxpbmVhckdyYWRpZW50IGdyYWRpZW50VW5pdHM9InVzZXJTcGFjZU9uVXNlIiB5Mj0iMjQuOTU0IiB4Mj0iMjUuMjEyIiB5MT0iMy42MjUiIHgxPSIzLjM3OSIgaWQ9IkEiPiYjeGE7CQkJPHN0b3AgY2xhc3M9InN0MCIvPiYjeGE7CQkJPHN0b3AgY2xhc3M9InN0MSIgb2Zmc2V0PSIxIi8+JiN4YTsJCTwvbGluZWFyR3JhZGllbnQ+JiN4YTsJPC9kZWZzPiYjeGE7CTxwYXRoIGZpbGw9InVybCgjQSkiIGQ9Ik0tLjA2MiAyNS4wMzNjLS4yOTEuMjkzLS40MzguNjAzLS40MzguOTMxLjAwMi4xODYuMDQyLjM2OS4xMTcuNTM5cy4xODUuMzIyLjMyMS40NDhjLjEyNi4xMzcuMjc5LjI0Ni40NDguMzIxcy4zNTMuMTE1LjUzOS4xMTdjLjMyOCAwIC42MzgtLjE0Ny45MzEtLjQzOGwzLjg5MS0zLjg5MWMxLjEzMy45ODcgMi40MTEgMS40NiAzLjgzNSAxLjQyNSAxLjQyNi0uMDc0IDIuNjY3LS42NCAzLjcyNi0xLjcwMWwxLjI2MS0xLjI1OWMuMjkzLS4yOTMuNDM4LS42MDMuNDM4LS45MzEgMC0uMzY2LS4xNDYtLjY5NC0uNDM4LS45ODdsLTcuMTI0LTcuMTIyYTEuMzYgMS4zNiAwIDAgMC0uOTg1LS40MzhjLS4zNjUgMC0uNjk0LjE0Ni0uOTg3LjQzOGwtMS4yNTkgMS4yNTljLTEuMDU5IDEuMDYxLTEuNjA4IDIuMjg1LTEuNjQ1IDMuNjcyLS4wNzIgMS4zNTIuMzQ3IDIuNTc2IDEuMjYxIDMuNjcyem0xMS4yOS00LjMyOWMtLjU4Ni41NDktMS4yNDMuODIyLTEuOTczLjgyMnMtMS4zODktLjI3My0xLjk3My0uODIybC0xLjA5Ni0xLjA5NmMtLjU0OS0uNTg0LS44MjItMS4yNDEtLjgyMi0xLjk3M3MuMjc0LTEuMzg3LjgyMi0xLjk3M2wuMjcyLS4yNzRMMTEuNSAyMC40M2wtLjI3NC4yNzN6bTIuNjMtNC44NzZjLjEyNi4xMzYuMjc4LjI0NS40NDcuMzIxYTEuMzYgMS4zNiAwIDAgMCAuNTM4LjExN2MuMzMgMCAuNjQtLjE0NS45MzMtLjQzOGwyLjUxOC0yLjUyMSAxLjA5NiAxLjA5NmMuMTI2LjEzNi4yNzkuMjQ2LjQ0OC4zMjFzLjM1My4xMTUuNTM5LjExN2ExLjI1IDEuMjUgMCAwIDAgLjk4Ni0uNDM4bDEuMjYxLTEuMjA1YzEuMDU5LTEuMDU5IDEuNjI1LTIuMjY1IDEuNjk5LTMuNjE3YTUuNjcgNS42NyAwIDAgMC0xLjE1Mi0zLjc4bDMuODkxLTMuODkxQTEuMzYgMS4zNiAwIDAgMCAyNy41LjkyNGMwLS4zNjUtLjE0NS0uNjk0LS40MzgtLjk4N1MyNi40NTgtLjUgMjYuMTMxLS41Yy0uMzY2IDAtLjY5NC4xNDctLjk4Ny40MzhsLTMuODg5IDMuODkzYy0xLjA3MS0uODk0LTIuNDQzLTEuMzQ2LTMuODM2LTEuMjYyLTEuNDI2LjA3NC0yLjY2NS42NC0zLjcyNiAxLjcwMWwtMS4yNjEgMS4yNTljLS4xMjguMTMtLjIyOC4yODQtLjI5NC40NTRzLS4wOTcuMzUxLS4wOS41MzNjLS4wMDMuMTczLjAzLjM0NS4wOTcuNTA1cy4xNjUuMzA0LjI4OS40MjVsMS4xNDkgMS4xNTItMi41MiAyLjQ2NWMtLjI5My4yOTMtLjQzOC42MjEtLjQzOC45ODdhMS4zNiAxLjM2IDAgMCAwIC4xMTcuNTM4Yy4wNzUuMTY5LjE4NS4zMjIuMzIxLjQ0Ny4xMjYuMTM2LjI3OS4yNDYuNDQ4LjMyMWExLjM2IDEuMzYgMCAwIDAgLjUzOS4xMTdjLjE4NS0uMDAyLjM2OC0uMDQyLjUzOC0uMTE3cy4zMjItLjE4NS40NDctLjMyMWwyLjQ2NS0yLjUyMS44NzcuODc3LTIuNTE4IDIuNDY1Yy0uMjkzLjI5My0uNDM4LjYyMS0uNDM4Ljk4N2ExLjM2IDEuMzYgMCAwIDAgLjExNy41MzhjLjA3NS4xNjkuMTg0LjMyMi4zMjEuNDQ3em0xLjUzNC05LjMxNmwuMjc0LS4zMjhhMi42OSAyLjY5IDAgMCAxIDEuOTczLS44MjJjLjczMSAwIDEuMzY5LjI3NCAxLjkxOC44MjJsMS4wOTYgMS4xNWMuNTg0LjU0OS44NzcgMS4yMDYuODc3IDEuOTczIDAgLjczMS0uMjkzIDEuMzcxLS44NzcgMS45MThsLS4yNzMuMjc0LTQuOTg3LTQuOTg1eiIvPiYjeGE7PC9zdmc+;rotation=-135;" vertex="1" parent="1">
          <mxGeometry x="446" y="365" width="70" height="70" as="geometry" />
        </mxCell>
        <mxCell id="udor24Wlc1t1U40zxqAk-20" value="" style="shape=image;editableCssRules=.*;verticalLabelPosition=bottom;labelBackgroundColor=default;verticalAlign=top;aspect=fixed;imageAspect=0;image=data:image/svg+xml,PHN2ZyB4bWxucz0iaHR0cDovL3d3dy53My5vcmcvMjAwMC9zdmciIHZpZXdCb3g9Ii0wLjUgLTAuNSAyOCAyNy44OSIgaGVpZ2h0PSIyNy44OSIgd2lkdGg9IjI4Ij4mI3hhOwkgIDxzdHlsZSB0eXBlPSJ0ZXh0L2NzcyI+LnN0MCB7IHN0b3AtY29sb3I6IHJnYig5MSwgMTE1LCAxMzkpOyB9IC5zdDEgeyBzdG9wLWNvbG9yOiByZ2IoMzQsIDUzLCA3Mik7IH0gPC9zdHlsZT4mI3hhOwk8ZGVmcz4mI3hhOwkJPGxpbmVhckdyYWRpZW50IGdyYWRpZW50VW5pdHM9InVzZXJTcGFjZU9uVXNlIiB5Mj0iMjQuOTU0IiB4Mj0iMjUuMjEyIiB5MT0iMy42MjUiIHgxPSIzLjM3OSIgaWQ9IkEiPiYjeGE7CQkJPHN0b3AgY2xhc3M9InN0MCIvPiYjeGE7CQkJPHN0b3AgY2xhc3M9InN0MSIgb2Zmc2V0PSIxIi8+JiN4YTsJCTwvbGluZWFyR3JhZGllbnQ+JiN4YTsJPC9kZWZzPiYjeGE7CTxwYXRoIGZpbGw9InVybCgjQSkiIGQ9Ik0tLjA2MiAyNS4wMzNjLS4yOTEuMjkzLS40MzguNjAzLS40MzguOTMxLjAwMi4xODYuMDQyLjM2OS4xMTcuNTM5cy4xODUuMzIyLjMyMS40NDhjLjEyNi4xMzcuMjc5LjI0Ni40NDguMzIxcy4zNTMuMTE1LjUzOS4xMTdjLjMyOCAwIC42MzgtLjE0Ny45MzEtLjQzOGwzLjg5MS0zLjg5MWMxLjEzMy45ODcgMi40MTEgMS40NiAzLjgzNSAxLjQyNSAxLjQyNi0uMDc0IDIuNjY3LS42NCAzLjcyNi0xLjcwMWwxLjI2MS0xLjI1OWMuMjkzLS4yOTMuNDM4LS42MDMuNDM4LS45MzEgMC0uMzY2LS4xNDYtLjY5NC0uNDM4LS45ODdsLTcuMTI0LTcuMTIyYTEuMzYgMS4zNiAwIDAgMC0uOTg1LS40MzhjLS4zNjUgMC0uNjk0LjE0Ni0uOTg3LjQzOGwtMS4yNTkgMS4yNTljLTEuMDU5IDEuMDYxLTEuNjA4IDIuMjg1LTEuNjQ1IDMuNjcyLS4wNzIgMS4zNTIuMzQ3IDIuNTc2IDEuMjYxIDMuNjcyem0xMS4yOS00LjMyOWMtLjU4Ni41NDktMS4yNDMuODIyLTEuOTczLjgyMnMtMS4zODktLjI3My0xLjk3My0uODIybC0xLjA5Ni0xLjA5NmMtLjU0OS0uNTg0LS44MjItMS4yNDEtLjgyMi0xLjk3M3MuMjc0LTEuMzg3LjgyMi0xLjk3M2wuMjcyLS4yNzRMMTEuNSAyMC40M2wtLjI3NC4yNzN6bTIuNjMtNC44NzZjLjEyNi4xMzYuMjc4LjI0NS40NDcuMzIxYTEuMzYgMS4zNiAwIDAgMCAuNTM4LjExN2MuMzMgMCAuNjQtLjE0NS45MzMtLjQzOGwyLjUxOC0yLjUyMSAxLjA5NiAxLjA5NmMuMTI2LjEzNi4yNzkuMjQ2LjQ0OC4zMjFzLjM1My4xMTUuNTM5LjExN2ExLjI1IDEuMjUgMCAwIDAgLjk4Ni0uNDM4bDEuMjYxLTEuMjA1YzEuMDU5LTEuMDU5IDEuNjI1LTIuMjY1IDEuNjk5LTMuNjE3YTUuNjcgNS42NyAwIDAgMC0xLjE1Mi0zLjc4bDMuODkxLTMuODkxQTEuMzYgMS4zNiAwIDAgMCAyNy41LjkyNGMwLS4zNjUtLjE0NS0uNjk0LS40MzgtLjk4N1MyNi40NTgtLjUgMjYuMTMxLS41Yy0uMzY2IDAtLjY5NC4xNDctLjk4Ny40MzhsLTMuODg5IDMuODkzYy0xLjA3MS0uODk0LTIuNDQzLTEuMzQ2LTMuODM2LTEuMjYyLTEuNDI2LjA3NC0yLjY2NS42NC0zLjcyNiAxLjcwMWwtMS4yNjEgMS4yNTljLS4xMjguMTMtLjIyOC4yODQtLjI5NC40NTRzLS4wOTcuMzUxLS4wOS41MzNjLS4wMDMuMTczLjAzLjM0NS4wOTcuNTA1cy4xNjUuMzA0LjI4OS40MjVsMS4xNDkgMS4xNTItMi41MiAyLjQ2NWMtLjI5My4yOTMtLjQzOC42MjEtLjQzOC45ODdhMS4zNiAxLjM2IDAgMCAwIC4xMTcuNTM4Yy4wNzUuMTY5LjE4NS4zMjIuMzIxLjQ0Ny4xMjYuMTM2LjI3OS4yNDYuNDQ4LjMyMWExLjM2IDEuMzYgMCAwIDAgLjUzOS4xMTdjLjE4NS0uMDAyLjM2OC0uMDQyLjUzOC0uMTE3cy4zMjItLjE4NS40NDctLjMyMWwyLjQ2NS0yLjUyMS44NzcuODc3LTIuNTE4IDIuNDY1Yy0uMjkzLjI5My0uNDM4LjYyMS0uNDM4Ljk4N2ExLjM2IDEuMzYgMCAwIDAgLjExNy41MzhjLjA3NS4xNjkuMTg0LjMyMi4zMjEuNDQ3em0xLjUzNC05LjMxNmwuMjc0LS4zMjhhMi42OSAyLjY5IDAgMCAxIDEuOTczLS44MjJjLjczMSAwIDEuMzY5LjI3NCAxLjkxOC44MjJsMS4wOTYgMS4xNWMuNTg0LjU0OS44NzcgMS4yMDYuODc3IDEuOTczIDAgLjczMS0uMjkzIDEuMzcxLS44NzcgMS45MThsLS4yNzMuMjc0LTQuOTg3LTQuOTg1eiIvPiYjeGE7PC9zdmc+;rotation=-197;" vertex="1" parent="1">
          <mxGeometry x="390" y="266" width="70" height="70" as="geometry" />
        </mxCell>
        <mxCell id="udor24Wlc1t1U40zxqAk-21" value="" style="shape=image;editableCssRules=.*;verticalLabelPosition=bottom;labelBackgroundColor=default;verticalAlign=top;aspect=fixed;imageAspect=0;image=data:image/svg+xml,PHN2ZyB4bWxucz0iaHR0cDovL3d3dy53My5vcmcvMjAwMC9zdmciIHZpZXdCb3g9Ii0wLjUgLTAuNSAyOCAyNy44OSIgaGVpZ2h0PSIyNy44OSIgd2lkdGg9IjI4Ij4mI3hhOwkgIDxzdHlsZSB0eXBlPSJ0ZXh0L2NzcyI+LnN0MCB7IHN0b3AtY29sb3I6IHJnYig5MSwgMTE1LCAxMzkpOyB9IC5zdDEgeyBzdG9wLWNvbG9yOiByZ2IoMzQsIDUzLCA3Mik7IH0gPC9zdHlsZT4mI3hhOwk8ZGVmcz4mI3hhOwkJPGxpbmVhckdyYWRpZW50IGdyYWRpZW50VW5pdHM9InVzZXJTcGFjZU9uVXNlIiB5Mj0iMjQuOTU0IiB4Mj0iMjUuMjEyIiB5MT0iMy42MjUiIHgxPSIzLjM3OSIgaWQ9IkEiPiYjeGE7CQkJPHN0b3AgY2xhc3M9InN0MCIvPiYjeGE7CQkJPHN0b3AgY2xhc3M9InN0MSIgb2Zmc2V0PSIxIi8+JiN4YTsJCTwvbGluZWFyR3JhZGllbnQ+JiN4YTsJPC9kZWZzPiYjeGE7CTxwYXRoIGZpbGw9InVybCgjQSkiIGQ9Ik0tLjA2MiAyNS4wMzNjLS4yOTEuMjkzLS40MzguNjAzLS40MzguOTMxLjAwMi4xODYuMDQyLjM2OS4xMTcuNTM5cy4xODUuMzIyLjMyMS40NDhjLjEyNi4xMzcuMjc5LjI0Ni40NDguMzIxcy4zNTMuMTE1LjUzOS4xMTdjLjMyOCAwIC42MzgtLjE0Ny45MzEtLjQzOGwzLjg5MS0zLjg5MWMxLjEzMy45ODcgMi40MTEgMS40NiAzLjgzNSAxLjQyNSAxLjQyNi0uMDc0IDIuNjY3LS42NCAzLjcyNi0xLjcwMWwxLjI2MS0xLjI1OWMuMjkzLS4yOTMuNDM4LS42MDMuNDM4LS45MzEgMC0uMzY2LS4xNDYtLjY5NC0uNDM4LS45ODdsLTcuMTI0LTcuMTIyYTEuMzYgMS4zNiAwIDAgMC0uOTg1LS40MzhjLS4zNjUgMC0uNjk0LjE0Ni0uOTg3LjQzOGwtMS4yNTkgMS4yNTljLTEuMDU5IDEuMDYxLTEuNjA4IDIuMjg1LTEuNjQ1IDMuNjcyLS4wNzIgMS4zNTIuMzQ3IDIuNTc2IDEuMjYxIDMuNjcyem0xMS4yOS00LjMyOWMtLjU4Ni41NDktMS4yNDMuODIyLTEuOTczLjgyMnMtMS4zODktLjI3My0xLjk3My0uODIybC0xLjA5Ni0xLjA5NmMtLjU0OS0uNTg0LS44MjItMS4yNDEtLjgyMi0xLjk3M3MuMjc0LTEuMzg3LjgyMi0xLjk3M2wuMjcyLS4yNzRMMTEuNSAyMC40M2wtLjI3NC4yNzN6bTIuNjMtNC44NzZjLjEyNi4xMzYuMjc4LjI0NS40NDcuMzIxYTEuMzYgMS4zNiAwIDAgMCAuNTM4LjExN2MuMzMgMCAuNjQtLjE0NS45MzMtLjQzOGwyLjUxOC0yLjUyMSAxLjA5NiAxLjA5NmMuMTI2LjEzNi4yNzkuMjQ2LjQ0OC4zMjFzLjM1My4xMTUuNTM5LjExN2ExLjI1IDEuMjUgMCAwIDAgLjk4Ni0uNDM4bDEuMjYxLTEuMjA1YzEuMDU5LTEuMDU5IDEuNjI1LTIuMjY1IDEuNjk5LTMuNjE3YTUuNjcgNS42NyAwIDAgMC0xLjE1Mi0zLjc4bDMuODkxLTMuODkxQTEuMzYgMS4zNiAwIDAgMCAyNy41LjkyNGMwLS4zNjUtLjE0NS0uNjk0LS40MzgtLjk4N1MyNi40NTgtLjUgMjYuMTMxLS41Yy0uMzY2IDAtLjY5NC4xNDctLjk4Ny40MzhsLTMuODg5IDMuODkzYy0xLjA3MS0uODk0LTIuNDQzLTEuMzQ2LTMuODM2LTEuMjYyLTEuNDI2LjA3NC0yLjY2NS42NC0zLjcyNiAxLjcwMWwtMS4yNjEgMS4yNTljLS4xMjguMTMtLjIyOC4yODQtLjI5NC40NTRzLS4wOTcuMzUxLS4wOS41MzNjLS4wMDMuMTczLjAzLjM0NS4wOTcuNTA1cy4xNjUuMzA0LjI4OS40MjVsMS4xNDkgMS4xNTItMi41MiAyLjQ2NWMtLjI5My4yOTMtLjQzOC42MjEtLjQzOC45ODdhMS4zNiAxLjM2IDAgMCAwIC4xMTcuNTM4Yy4wNzUuMTY5LjE4NS4zMjIuMzIxLjQ0Ny4xMjYuMTM2LjI3OS4yNDYuNDQ4LjMyMWExLjM2IDEuMzYgMCAwIDAgLjUzOS4xMTdjLjE4NS0uMDAyLjM2OC0uMDQyLjUzOC0uMTE3cy4zMjItLjE4NS40NDctLjMyMWwyLjQ2NS0yLjUyMS44NzcuODc3LTIuNTE4IDIuNDY1Yy0uMjkzLjI5My0uNDM4LjYyMS0uNDM4Ljk4N2ExLjM2IDEuMzYgMCAwIDAgLjExNy41MzhjLjA3NS4xNjkuMTg0LjMyMi4zMjEuNDQ3em0xLjUzNC05LjMxNmwuMjc0LS4zMjhhMi42OSAyLjY5IDAgMCAxIDEuOTczLS44MjJjLjczMSAwIDEuMzY5LjI3NCAxLjkxOC44MjJsMS4wOTYgMS4xNWMuNTg0LjU0OS44NzcgMS4yMDYuODc3IDEuOTczIDAgLjczMS0uMjkzIDEuMzcxLS44NzcgMS45MThsLS4yNzMuMjc0LTQuOTg3LTQuOTg1eiIvPiYjeGE7PC9zdmc+;rotation=-75;" vertex="1" parent="1">
          <mxGeometry x="263" y="266" width="70" height="70" as="geometry" />
        </mxCell>
        <mxCell id="udor24Wlc1t1U40zxqAk-57" style="edgeStyle=orthogonalEdgeStyle;rounded=0;orthogonalLoop=1;jettySize=auto;html=1;strokeWidth=5;" edge="1" parent="1" source="udor24Wlc1t1U40zxqAk-23" target="udor24Wlc1t1U40zxqAk-24">
          <mxGeometry relative="1" as="geometry" />
        </mxCell>
        <mxCell id="udor24Wlc1t1U40zxqAk-23" value="Primary&lt;br style=&quot;font-size: 18px;&quot;&gt;Adapters" style="text;strokeColor=none;fillColor=none;html=1;fontSize=18;fontStyle=1;verticalAlign=middle;align=center;" vertex="1" parent="1">
          <mxGeometry x="200" y="90" width="100" height="40" as="geometry" />
        </mxCell>
        <mxCell id="udor24Wlc1t1U40zxqAk-24" value="Secondary&lt;br style=&quot;font-size: 18px;&quot;&gt;Adapters" style="text;strokeColor=none;fillColor=none;html=1;fontSize=18;fontStyle=1;verticalAlign=middle;align=center;" vertex="1" parent="1">
          <mxGeometry x="418.5" y="90" width="100" height="40" as="geometry" />
        </mxCell>
        <mxCell id="udor24Wlc1t1U40zxqAk-26" value="Port" style="text;html=1;align=center;verticalAlign=middle;whiteSpace=wrap;rounded=0;fontSize=15;fontStyle=1;rotation=-60;" vertex="1" parent="1">
          <mxGeometry x="240" y="335" width="60" height="30" as="geometry" />
        </mxCell>
        <mxCell id="udor24Wlc1t1U40zxqAk-27" value="Port" style="text;html=1;align=center;verticalAlign=middle;whiteSpace=wrap;rounded=0;fontSize=15;fontStyle=1;rotation=51;" vertex="1" parent="1">
          <mxGeometry x="241" y="435" width="60" height="30" as="geometry" />
        </mxCell>
        <mxCell id="udor24Wlc1t1U40zxqAk-28" value="Port" style="text;html=1;align=center;verticalAlign=middle;whiteSpace=wrap;rounded=0;fontSize=15;fontStyle=1;rotation=51;" vertex="1" parent="1">
          <mxGeometry x="425" y="330" width="60" height="30" as="geometry" />
        </mxCell>
        <mxCell id="udor24Wlc1t1U40zxqAk-29" value="Port" style="text;html=1;align=center;verticalAlign=middle;whiteSpace=wrap;rounded=0;fontSize=15;fontStyle=1;rotation=-60;" vertex="1" parent="1">
          <mxGeometry x="425" y="436" width="60" height="30" as="geometry" />
        </mxCell>
        <mxCell id="udor24Wlc1t1U40zxqAk-33" value="" style="sketch=0;html=1;verticalAlign=top;labelPosition=center;verticalLabelPosition=bottom;align=center;spacingTop=-6;fontSize=11;fontStyle=1;fontColor=#999999;shape=image;aspect=fixed;imageAspect=0;image=data:image/svg+xml,PHN2ZyB4bWxucz0iaHR0cDovL3d3dy53My5vcmcvMjAwMC9zdmciIGhlaWdodD0iMzY3LjgxODMyODg1NzQyMTkiIHZpZXdCb3g9IjcuMTA1NDI3MzU3NjAxMDAyZS0xNSAwIDM2Ni40MTAxODY3Njc1NzgxIDM2Ny44MTgzMjg4NTc0MjE5IiBwcmVzZXJ2ZUFzcGVjdFJhdGlvPSJ4TWlkWU1pZCBtZWV0IiB3aWR0aD0iMzY2LjQxMDE5Njc2NzU3OTEiIHZlcnNpb249IjEuMSIgaWQ9InN2Zzk4NyIgem9vbUFuZFBhbj0ibWFnbmlmeSI+JiN4YTsgIDxwYXRoIGQ9Im0gNDguMjUxOTYsMTExLjUzOTA2IGMgLTcuNjE4NjQsMmUtNCAtMTMuNzk0NzIsNi4xNzYyOCAtMTMuNzk0OTMsMTMuNzk0OTIgMi4xZS00LDcuNjE4NjQgNi4xNzYyOSwxMy43OTQ3MiAxMy43OTQ5MywxMy43OTQ5MiBoIDE0NS4xNDY5MiB2IC0yNy41ODk4NCB6IG0gMjM4LjYwODU5LDU3LjQ1MTE3IGggNjUuNzU0NjkgYyA3LjYxODY0LC0yLjFlLTQgMTMuNzk0NzEsLTYuMTc2MjggMTMuNzk0OTIsLTEzLjc5NDkyIC0yLjFlLTQsLTcuNjE4NjQgLTYuMTc2MjgsLTEzLjc5NDcxIC0xMy43OTQ5MiwtMTMuNzk0OTIgSCAyODQuODUwNiBaIE0gMTMuNzk0OTIsMTcwLjk3NDYxIEMgNi4xNzYyODAxLDE3MC45NzQ4MiAyLjEwMDkxOWUtNCwxNzcuMTUwODkgOS4xODk5MjFlLTgsMTg0Ljc2OTUzIC04LjY5OTA4MWUtNCwxOTIuMzg4OTMgNi4xNzU1MjAxLDE5OC41NjYxOSAxMy43OTQ5MiwxOTguNTY2NCBIIDE5My4zOTg4OCBWIDE3MC45NzQ2MSBaIE0gMjg0LjMwNzgsMjI3LjU2NjQgaCA2OC4zMDc0NCBjIDcuNjE4NjQsLTIuMWUtNCAxMy43OTQ3MSwtNi4xNzYyOCAxMy43OTQ5MiwtMTMuNzk0OTIgLTIuMWUtNCwtNy42MTg2NCAtNi4xNzYyOCwtMTMuNzk0NzEgLTEzLjc5NDkyLC0xMy43OTQ5MiBoIC02NS45MjE3OCB6IG0gLTIzNi4wNTU4NCwxLjY5NzI3IGMgLTcuNjE4NjQsMmUtNCAtMTMuNzk0NzIsNi4xNzYyOCAtMTMuNzk0OTMsMTMuNzk0OTIgMi4xZS00LDcuNjE4NjQgNi4xNzYyOSwxMy43OTQ3MiAxMy43OTQ5MywxMy43OTQ5MiBIIDE5My4zOTg4OCBWIDIyOS4yNjM2NyBaIE0gMTg5LjUyMTQ5LDAgYyAtMjQuNTc0MTEsMCAtNDkuMTY3MzcsMjAuMDU1MDcgLTU5LjQzNzUsNzUuMzczMDQgaCAzMC41ODAwNyBjIDQuNjE2MzMsLTI0LjE2MjA2IDE1LjM0ODk2LC00Ny41MjE0OCAyNy44NTM1MiwtNDcuNTIxNDggMTIuMTU4OCwwIDM5LjQ1ODk4LDU3LjQ1MDQ0IDM5LjQ1ODk4LDE2MC40MTQwNiAwLDY5LjkxNTEzIC0xOS41NzgwOSwxNTIuMTE1MjQgLTQxLjE3MTg3LDE1Mi4xMTUyMyAtMTUuMjY4ODEsMmUtNSAtMjEuMjE2NjgsLTI4LjMzMzU2IC0yNS40NDMzNiwtNDYuNzE4NzQgbCAtMzAuNDE0MDYsLTAuMDY4NCBjIDQuMjIwNzQsMjAuNTQwODcgMTYuOTA3NjgsNzQuMjI0NiA1Ny43MTI4OSw3NC4yMjQ2IDUzLjQzNjcyLDAgNjguOTEyMTEsLTExMS45OTMwNSA2OC45MTIxMSwtMTgwLjQ2Mjg5IEMgMjU3LjU3MjI3LDkzLjgwMDc2IDIzNi41ODM0LDAgMTg5LjUyMTQ5LDAgWiIgc3R5bGU9ImNvbG9yOiMwMDAwMDA7b3BhY2l0eToxO2ZpbGw6IzQyODVmNDtmaWxsLW9wYWNpdHk6MTtzdHJva2UtbGluZWNhcDpyb3VuZDstaW5rc2NhcGUtc3Ryb2tlOm5vbmUiLz4mI3hhOzwvc3ZnPg==;rotation=-60;" vertex="1" parent="1">
          <mxGeometry x="207" y="547" width="81" height="81" as="geometry" />
        </mxCell>
        <mxCell id="udor24Wlc1t1U40zxqAk-34" value="" style="sketch=0;html=1;verticalAlign=top;labelPosition=center;verticalLabelPosition=bottom;align=center;spacingTop=-6;fontSize=11;fontStyle=1;fontColor=#999999;shape=image;aspect=fixed;imageAspect=0;image=data:image/svg+xml,PHN2ZyB4bWxucz0iaHR0cDovL3d3dy53My5vcmcvMjAwMC9zdmciIGhlaWdodD0iMzY3LjgxODMyODg1NzQyMTkiIHZpZXdCb3g9IjcuMTA1NDI3MzU3NjAxMDAyZS0xNSAwIDM2Ni40MTAxODY3Njc1NzgxIDM2Ny44MTgzMjg4NTc0MjE5IiBwcmVzZXJ2ZUFzcGVjdFJhdGlvPSJ4TWlkWU1pZCBtZWV0IiB3aWR0aD0iMzY2LjQxMDE5Njc2NzU3OTEiIHZlcnNpb249IjEuMSIgaWQ9InN2Zzk4NyIgem9vbUFuZFBhbj0ibWFnbmlmeSI+JiN4YTsgIDxwYXRoIGQ9Im0gNDguMjUxOTYsMTExLjUzOTA2IGMgLTcuNjE4NjQsMmUtNCAtMTMuNzk0NzIsNi4xNzYyOCAtMTMuNzk0OTMsMTMuNzk0OTIgMi4xZS00LDcuNjE4NjQgNi4xNzYyOSwxMy43OTQ3MiAxMy43OTQ5MywxMy43OTQ5MiBoIDE0NS4xNDY5MiB2IC0yNy41ODk4NCB6IG0gMjM4LjYwODU5LDU3LjQ1MTE3IGggNjUuNzU0NjkgYyA3LjYxODY0LC0yLjFlLTQgMTMuNzk0NzEsLTYuMTc2MjggMTMuNzk0OTIsLTEzLjc5NDkyIC0yLjFlLTQsLTcuNjE4NjQgLTYuMTc2MjgsLTEzLjc5NDcxIC0xMy43OTQ5MiwtMTMuNzk0OTIgSCAyODQuODUwNiBaIE0gMTMuNzk0OTIsMTcwLjk3NDYxIEMgNi4xNzYyODAxLDE3MC45NzQ4MiAyLjEwMDkxOWUtNCwxNzcuMTUwODkgOS4xODk5MjFlLTgsMTg0Ljc2OTUzIC04LjY5OTA4MWUtNCwxOTIuMzg4OTMgNi4xNzU1MjAxLDE5OC41NjYxOSAxMy43OTQ5MiwxOTguNTY2NCBIIDE5My4zOTg4OCBWIDE3MC45NzQ2MSBaIE0gMjg0LjMwNzgsMjI3LjU2NjQgaCA2OC4zMDc0NCBjIDcuNjE4NjQsLTIuMWUtNCAxMy43OTQ3MSwtNi4xNzYyOCAxMy43OTQ5MiwtMTMuNzk0OTIgLTIuMWUtNCwtNy42MTg2NCAtNi4xNzYyOCwtMTMuNzk0NzEgLTEzLjc5NDkyLC0xMy43OTQ5MiBoIC02NS45MjE3OCB6IG0gLTIzNi4wNTU4NCwxLjY5NzI3IGMgLTcuNjE4NjQsMmUtNCAtMTMuNzk0NzIsNi4xNzYyOCAtMTMuNzk0OTMsMTMuNzk0OTIgMi4xZS00LDcuNjE4NjQgNi4xNzYyOSwxMy43OTQ3MiAxMy43OTQ5MywxMy43OTQ5MiBIIDE5My4zOTg4OCBWIDIyOS4yNjM2NyBaIE0gMTg5LjUyMTQ5LDAgYyAtMjQuNTc0MTEsMCAtNDkuMTY3MzcsMjAuMDU1MDcgLTU5LjQzNzUsNzUuMzczMDQgaCAzMC41ODAwNyBjIDQuNjE2MzMsLTI0LjE2MjA2IDE1LjM0ODk2LC00Ny41MjE0OCAyNy44NTM1MiwtNDcuNTIxNDggMTIuMTU4OCwwIDM5LjQ1ODk4LDU3LjQ1MDQ0IDM5LjQ1ODk4LDE2MC40MTQwNiAwLDY5LjkxNTEzIC0xOS41NzgwOSwxNTIuMTE1MjQgLTQxLjE3MTg3LDE1Mi4xMTUyMyAtMTUuMjY4ODEsMmUtNSAtMjEuMjE2NjgsLTI4LjMzMzU2IC0yNS40NDMzNiwtNDYuNzE4NzQgbCAtMzAuNDE0MDYsLTAuMDY4NCBjIDQuMjIwNzQsMjAuNTQwODcgMTYuOTA3NjgsNzQuMjI0NiA1Ny43MTI4OSw3NC4yMjQ2IDUzLjQzNjcyLDAgNjguOTEyMTEsLTExMS45OTMwNSA2OC45MTIxMSwtMTgwLjQ2Mjg5IEMgMjU3LjU3MjI3LDkzLjgwMDc2IDIzNi41ODM0LDAgMTg5LjUyMTQ5LDAgWiIgc3R5bGU9ImNvbG9yOiMwMDAwMDA7b3BhY2l0eToxO2ZpbGw6IzQyODVmNDtmaWxsLW9wYWNpdHk6MTtzdHJva2UtbGluZWNhcDpyb3VuZDstaW5rc2NhcGUtc3Ryb2tlOm5vbmUiLz4mI3hhOzwvc3ZnPg==;rotation=60;" vertex="1" parent="1">
          <mxGeometry x="206" y="170" width="81" height="81" as="geometry" />
        </mxCell>
        <mxCell id="udor24Wlc1t1U40zxqAk-35" value="" style="sketch=0;html=1;verticalAlign=top;labelPosition=center;verticalLabelPosition=bottom;align=center;spacingTop=-6;fontSize=11;fontStyle=1;fontColor=#999999;shape=image;aspect=fixed;imageAspect=0;image=data:image/svg+xml,PHN2ZyB4bWxucz0iaHR0cDovL3d3dy53My5vcmcvMjAwMC9zdmciIGhlaWdodD0iMzY3LjgxODMyODg1NzQyMTkiIHZpZXdCb3g9IjcuMTA1NDI3MzU3NjAxMDAyZS0xNSAwIDM2Ni40MTAxODY3Njc1NzgxIDM2Ny44MTgzMjg4NTc0MjE5IiBwcmVzZXJ2ZUFzcGVjdFJhdGlvPSJ4TWlkWU1pZCBtZWV0IiB3aWR0aD0iMzY2LjQxMDE5Njc2NzU3OTEiIHZlcnNpb249IjEuMSIgaWQ9InN2Zzk4NyIgem9vbUFuZFBhbj0ibWFnbmlmeSI+JiN4YTsgIDxwYXRoIGQ9Im0gNDguMjUxOTYsMTExLjUzOTA2IGMgLTcuNjE4NjQsMmUtNCAtMTMuNzk0NzIsNi4xNzYyOCAtMTMuNzk0OTMsMTMuNzk0OTIgMi4xZS00LDcuNjE4NjQgNi4xNzYyOSwxMy43OTQ3MiAxMy43OTQ5MywxMy43OTQ5MiBoIDE0NS4xNDY5MiB2IC0yNy41ODk4NCB6IG0gMjM4LjYwODU5LDU3LjQ1MTE3IGggNjUuNzU0NjkgYyA3LjYxODY0LC0yLjFlLTQgMTMuNzk0NzEsLTYuMTc2MjggMTMuNzk0OTIsLTEzLjc5NDkyIC0yLjFlLTQsLTcuNjE4NjQgLTYuMTc2MjgsLTEzLjc5NDcxIC0xMy43OTQ5MiwtMTMuNzk0OTIgSCAyODQuODUwNiBaIE0gMTMuNzk0OTIsMTcwLjk3NDYxIEMgNi4xNzYyODAxLDE3MC45NzQ4MiAyLjEwMDkxOWUtNCwxNzcuMTUwODkgOS4xODk5MjFlLTgsMTg0Ljc2OTUzIC04LjY5OTA4MWUtNCwxOTIuMzg4OTMgNi4xNzU1MjAxLDE5OC41NjYxOSAxMy43OTQ5MiwxOTguNTY2NCBIIDE5My4zOTg4OCBWIDE3MC45NzQ2MSBaIE0gMjg0LjMwNzgsMjI3LjU2NjQgaCA2OC4zMDc0NCBjIDcuNjE4NjQsLTIuMWUtNCAxMy43OTQ3MSwtNi4xNzYyOCAxMy43OTQ5MiwtMTMuNzk0OTIgLTIuMWUtNCwtNy42MTg2NCAtNi4xNzYyOCwtMTMuNzk0NzEgLTEzLjc5NDkyLC0xMy43OTQ5MiBoIC02NS45MjE3OCB6IG0gLTIzNi4wNTU4NCwxLjY5NzI3IGMgLTcuNjE4NjQsMmUtNCAtMTMuNzk0NzIsNi4xNzYyOCAtMTMuNzk0OTMsMTMuNzk0OTIgMi4xZS00LDcuNjE4NjQgNi4xNzYyOSwxMy43OTQ3MiAxMy43OTQ5MywxMy43OTQ5MiBIIDE5My4zOTg4OCBWIDIyOS4yNjM2NyBaIE0gMTg5LjUyMTQ5LDAgYyAtMjQuNTc0MTEsMCAtNDkuMTY3MzcsMjAuMDU1MDcgLTU5LjQzNzUsNzUuMzczMDQgaCAzMC41ODAwNyBjIDQuNjE2MzMsLTI0LjE2MjA2IDE1LjM0ODk2LC00Ny41MjE0OCAyNy44NTM1MiwtNDcuNTIxNDggMTIuMTU4OCwwIDM5LjQ1ODk4LDU3LjQ1MDQ0IDM5LjQ1ODk4LDE2MC40MTQwNiAwLDY5LjkxNTEzIC0xOS41NzgwOSwxNTIuMTE1MjQgLTQxLjE3MTg3LDE1Mi4xMTUyMyAtMTUuMjY4ODEsMmUtNSAtMjEuMjE2NjgsLTI4LjMzMzU2IC0yNS40NDMzNiwtNDYuNzE4NzQgbCAtMzAuNDE0MDYsLTAuMDY4NCBjIDQuMjIwNzQsMjAuNTQwODcgMTYuOTA3NjgsNzQuMjI0NiA1Ny43MTI4OSw3NC4yMjQ2IDUzLjQzNjcyLDAgNjguOTEyMTEsLTExMS45OTMwNSA2OC45MTIxMSwtMTgwLjQ2Mjg5IEMgMjU3LjU3MjI3LDkzLjgwMDc2IDIzNi41ODM0LDAgMTg5LjUyMTQ5LDAgWiIgc3R5bGU9ImNvbG9yOiMwMDAwMDA7b3BhY2l0eToxO2ZpbGw6IzQyODVmNDtmaWxsLW9wYWNpdHk6MTtzdHJva2UtbGluZWNhcDpyb3VuZDstaW5rc2NhcGUtc3Ryb2tlOm5vbmUiLz4mI3hhOzwvc3ZnPg==;rotation=60;" vertex="1" parent="1">
          <mxGeometry x="428" y="539" width="81" height="81" as="geometry" />
        </mxCell>
        <mxCell id="udor24Wlc1t1U40zxqAk-36" value="" style="sketch=0;html=1;verticalAlign=top;labelPosition=center;verticalLabelPosition=bottom;align=center;spacingTop=-6;fontSize=11;fontStyle=1;fontColor=#999999;shape=image;aspect=fixed;imageAspect=0;image=data:image/svg+xml,PHN2ZyB4bWxucz0iaHR0cDovL3d3dy53My5vcmcvMjAwMC9zdmciIGhlaWdodD0iMzY3LjgxODMyODg1NzQyMTkiIHZpZXdCb3g9IjcuMTA1NDI3MzU3NjAxMDAyZS0xNSAwIDM2Ni40MTAxODY3Njc1NzgxIDM2Ny44MTgzMjg4NTc0MjE5IiBwcmVzZXJ2ZUFzcGVjdFJhdGlvPSJ4TWlkWU1pZCBtZWV0IiB3aWR0aD0iMzY2LjQxMDE5Njc2NzU3OTEiIHZlcnNpb249IjEuMSIgaWQ9InN2Zzk4NyIgem9vbUFuZFBhbj0ibWFnbmlmeSI+JiN4YTsgIDxwYXRoIGQ9Im0gNDguMjUxOTYsMTExLjUzOTA2IGMgLTcuNjE4NjQsMmUtNCAtMTMuNzk0NzIsNi4xNzYyOCAtMTMuNzk0OTMsMTMuNzk0OTIgMi4xZS00LDcuNjE4NjQgNi4xNzYyOSwxMy43OTQ3MiAxMy43OTQ5MywxMy43OTQ5MiBoIDE0NS4xNDY5MiB2IC0yNy41ODk4NCB6IG0gMjM4LjYwODU5LDU3LjQ1MTE3IGggNjUuNzU0NjkgYyA3LjYxODY0LC0yLjFlLTQgMTMuNzk0NzEsLTYuMTc2MjggMTMuNzk0OTIsLTEzLjc5NDkyIC0yLjFlLTQsLTcuNjE4NjQgLTYuMTc2MjgsLTEzLjc5NDcxIC0xMy43OTQ5MiwtMTMuNzk0OTIgSCAyODQuODUwNiBaIE0gMTMuNzk0OTIsMTcwLjk3NDYxIEMgNi4xNzYyODAxLDE3MC45NzQ4MiAyLjEwMDkxOWUtNCwxNzcuMTUwODkgOS4xODk5MjFlLTgsMTg0Ljc2OTUzIC04LjY5OTA4MWUtNCwxOTIuMzg4OTMgNi4xNzU1MjAxLDE5OC41NjYxOSAxMy43OTQ5MiwxOTguNTY2NCBIIDE5My4zOTg4OCBWIDE3MC45NzQ2MSBaIE0gMjg0LjMwNzgsMjI3LjU2NjQgaCA2OC4zMDc0NCBjIDcuNjE4NjQsLTIuMWUtNCAxMy43OTQ3MSwtNi4xNzYyOCAxMy43OTQ5MiwtMTMuNzk0OTIgLTIuMWUtNCwtNy42MTg2NCAtNi4xNzYyOCwtMTMuNzk0NzEgLTEzLjc5NDkyLC0xMy43OTQ5MiBoIC02NS45MjE3OCB6IG0gLTIzNi4wNTU4NCwxLjY5NzI3IGMgLTcuNjE4NjQsMmUtNCAtMTMuNzk0NzIsNi4xNzYyOCAtMTMuNzk0OTMsMTMuNzk0OTIgMi4xZS00LDcuNjE4NjQgNi4xNzYyOSwxMy43OTQ3MiAxMy43OTQ5MywxMy43OTQ5MiBIIDE5My4zOTg4OCBWIDIyOS4yNjM2NyBaIE0gMTg5LjUyMTQ5LDAgYyAtMjQuNTc0MTEsMCAtNDkuMTY3MzcsMjAuMDU1MDcgLTU5LjQzNzUsNzUuMzczMDQgaCAzMC41ODAwNyBjIDQuNjE2MzMsLTI0LjE2MjA2IDE1LjM0ODk2LC00Ny41MjE0OCAyNy44NTM1MiwtNDcuNTIxNDggMTIuMTU4OCwwIDM5LjQ1ODk4LDU3LjQ1MDQ0IDM5LjQ1ODk4LDE2MC40MTQwNiAwLDY5LjkxNTEzIC0xOS41NzgwOSwxNTIuMTE1MjQgLTQxLjE3MTg3LDE1Mi4xMTUyMyAtMTUuMjY4ODEsMmUtNSAtMjEuMjE2NjgsLTI4LjMzMzU2IC0yNS40NDMzNiwtNDYuNzE4NzQgbCAtMzAuNDE0MDYsLTAuMDY4NCBjIDQuMjIwNzQsMjAuNTQwODcgMTYuOTA3NjgsNzQuMjI0NiA1Ny43MTI4OSw3NC4yMjQ2IDUzLjQzNjcyLDAgNjguOTEyMTEsLTExMS45OTMwNSA2OC45MTIxMSwtMTgwLjQ2Mjg5IEMgMjU3LjU3MjI3LDkzLjgwMDc2IDIzNi41ODM0LDAgMTg5LjUyMTQ5LDAgWiIgc3R5bGU9ImNvbG9yOiMwMDAwMDA7b3BhY2l0eToxO2ZpbGw6IzQyODVmNDtmaWxsLW9wYWNpdHk6MTtzdHJva2UtbGluZWNhcDpyb3VuZDstaW5rc2NhcGUtc3Ryb2tlOm5vbmUiLz4mI3hhOzwvc3ZnPg==;" vertex="1" parent="1">
          <mxGeometry x="535" y="357.5" width="81" height="81" as="geometry" />
        </mxCell>
        <mxCell id="udor24Wlc1t1U40zxqAk-37" value="" style="sketch=0;html=1;verticalAlign=top;labelPosition=center;verticalLabelPosition=bottom;align=center;spacingTop=-6;fontSize=11;fontStyle=1;fontColor=#999999;shape=image;aspect=fixed;imageAspect=0;image=data:image/svg+xml,PHN2ZyB4bWxucz0iaHR0cDovL3d3dy53My5vcmcvMjAwMC9zdmciIGhlaWdodD0iMzY3LjgxODMyODg1NzQyMTkiIHZpZXdCb3g9IjcuMTA1NDI3MzU3NjAxMDAyZS0xNSAwIDM2Ni40MTAxODY3Njc1NzgxIDM2Ny44MTgzMjg4NTc0MjE5IiBwcmVzZXJ2ZUFzcGVjdFJhdGlvPSJ4TWlkWU1pZCBtZWV0IiB3aWR0aD0iMzY2LjQxMDE5Njc2NzU3OTEiIHZlcnNpb249IjEuMSIgaWQ9InN2Zzk4NyIgem9vbUFuZFBhbj0ibWFnbmlmeSI+JiN4YTsgIDxwYXRoIGQ9Im0gNDguMjUxOTYsMTExLjUzOTA2IGMgLTcuNjE4NjQsMmUtNCAtMTMuNzk0NzIsNi4xNzYyOCAtMTMuNzk0OTMsMTMuNzk0OTIgMi4xZS00LDcuNjE4NjQgNi4xNzYyOSwxMy43OTQ3MiAxMy43OTQ5MywxMy43OTQ5MiBoIDE0NS4xNDY5MiB2IC0yNy41ODk4NCB6IG0gMjM4LjYwODU5LDU3LjQ1MTE3IGggNjUuNzU0NjkgYyA3LjYxODY0LC0yLjFlLTQgMTMuNzk0NzEsLTYuMTc2MjggMTMuNzk0OTIsLTEzLjc5NDkyIC0yLjFlLTQsLTcuNjE4NjQgLTYuMTc2MjgsLTEzLjc5NDcxIC0xMy43OTQ5MiwtMTMuNzk0OTIgSCAyODQuODUwNiBaIE0gMTMuNzk0OTIsMTcwLjk3NDYxIEMgNi4xNzYyODAxLDE3MC45NzQ4MiAyLjEwMDkxOWUtNCwxNzcuMTUwODkgOS4xODk5MjFlLTgsMTg0Ljc2OTUzIC04LjY5OTA4MWUtNCwxOTIuMzg4OTMgNi4xNzU1MjAxLDE5OC41NjYxOSAxMy43OTQ5MiwxOTguNTY2NCBIIDE5My4zOTg4OCBWIDE3MC45NzQ2MSBaIE0gMjg0LjMwNzgsMjI3LjU2NjQgaCA2OC4zMDc0NCBjIDcuNjE4NjQsLTIuMWUtNCAxMy43OTQ3MSwtNi4xNzYyOCAxMy43OTQ5MiwtMTMuNzk0OTIgLTIuMWUtNCwtNy42MTg2NCAtNi4xNzYyOCwtMTMuNzk0NzEgLTEzLjc5NDkyLC0xMy43OTQ5MiBoIC02NS45MjE3OCB6IG0gLTIzNi4wNTU4NCwxLjY5NzI3IGMgLTcuNjE4NjQsMmUtNCAtMTMuNzk0NzIsNi4xNzYyOCAtMTMuNzk0OTMsMTMuNzk0OTIgMi4xZS00LDcuNjE4NjQgNi4xNzYyOSwxMy43OTQ3MiAxMy43OTQ5MywxMy43OTQ5MiBIIDE5My4zOTg4OCBWIDIyOS4yNjM2NyBaIE0gMTg5LjUyMTQ5LDAgYyAtMjQuNTc0MTEsMCAtNDkuMTY3MzcsMjAuMDU1MDcgLTU5LjQzNzUsNzUuMzczMDQgaCAzMC41ODAwNyBjIDQuNjE2MzMsLTI0LjE2MjA2IDE1LjM0ODk2LC00Ny41MjE0OCAyNy44NTM1MiwtNDcuNTIxNDggMTIuMTU4OCwwIDM5LjQ1ODk4LDU3LjQ1MDQ0IDM5LjQ1ODk4LDE2MC40MTQwNiAwLDY5LjkxNTEzIC0xOS41NzgwOSwxNTIuMTE1MjQgLTQxLjE3MTg3LDE1Mi4xMTUyMyAtMTUuMjY4ODEsMmUtNSAtMjEuMjE2NjgsLTI4LjMzMzU2IC0yNS40NDMzNiwtNDYuNzE4NzQgbCAtMzAuNDE0MDYsLTAuMDY4NCBjIDQuMjIwNzQsMjAuNTQwODcgMTYuOTA3NjgsNzQuMjI0NiA1Ny43MTI4OSw3NC4yMjQ2IDUzLjQzNjcyLDAgNjguOTEyMTEsLTExMS45OTMwNSA2OC45MTIxMSwtMTgwLjQ2Mjg5IEMgMjU3LjU3MjI3LDkzLjgwMDc2IDIzNi41ODM0LDAgMTg5LjUyMTQ5LDAgWiIgc3R5bGU9ImNvbG9yOiMwMDAwMDA7b3BhY2l0eToxO2ZpbGw6IzQyODVmNDtmaWxsLW9wYWNpdHk6MTtzdHJva2UtbGluZWNhcDpyb3VuZDstaW5rc2NhcGUtc3Ryb2tlOm5vbmUiLz4mI3hhOzwvc3ZnPg==;rotation=-60;" vertex="1" parent="1">
          <mxGeometry x="430" y="178" width="81" height="81" as="geometry" />
        </mxCell>
        <mxCell id="udor24Wlc1t1U40zxqAk-38" value="Adapter" style="text;html=1;align=center;verticalAlign=middle;whiteSpace=wrap;rounded=0;fontSize=15;fontStyle=1;rotation=-60;" vertex="1" parent="1">
          <mxGeometry x="150" y="286" width="60" height="30" as="geometry" />
        </mxCell>
        <mxCell id="udor24Wlc1t1U40zxqAk-39" value="Adapter" style="text;html=1;align=center;verticalAlign=middle;whiteSpace=wrap;rounded=0;fontSize=15;fontStyle=1;rotation=-60;" vertex="1" parent="1">
          <mxGeometry x="500" y="484" width="60" height="30" as="geometry" />
        </mxCell>
        <mxCell id="udor24Wlc1t1U40zxqAk-58" style="rounded=0;orthogonalLoop=1;jettySize=auto;html=1;strokeWidth=2;" edge="1" parent="1" source="udor24Wlc1t1U40zxqAk-36" target="udor24Wlc1t1U40zxqAk-55">
          <mxGeometry relative="1" as="geometry" />
        </mxCell>
        <mxCell id="udor24Wlc1t1U40zxqAk-41" value="Adapter" style="text;html=1;align=center;verticalAlign=middle;whiteSpace=wrap;rounded=0;fontSize=15;fontStyle=1;rotation=51;" vertex="1" parent="1">
          <mxGeometry x="509" y="280" width="60" height="30" as="geometry" />
        </mxCell>
        <mxCell id="udor24Wlc1t1U40zxqAk-43" value="Adapter" style="text;html=1;align=center;verticalAlign=middle;whiteSpace=wrap;rounded=0;fontSize=15;fontStyle=1;rotation=51;" vertex="1" parent="1">
          <mxGeometry x="160" y="484" width="60" height="30" as="geometry" />
        </mxCell>
        <mxCell id="udor24Wlc1t1U40zxqAk-61" style="rounded=0;orthogonalLoop=1;jettySize=auto;html=1;strokeWidth=2;" edge="1" parent="1" source="udor24Wlc1t1U40zxqAk-44" target="udor24Wlc1t1U40zxqAk-12">
          <mxGeometry relative="1" as="geometry" />
        </mxCell>
        <mxCell id="udor24Wlc1t1U40zxqAk-44" value="Client" style="points=[[0.35,0,0],[0.98,0.51,0],[1,0.71,0],[0.67,1,0],[0,0.795,0],[0,0.65,0]];verticalLabelPosition=bottom;sketch=0;html=1;verticalAlign=top;aspect=fixed;align=center;pointerEvents=1;shape=mxgraph.cisco19.user;fillColor=#005073;strokeColor=none;" vertex="1" parent="1">
          <mxGeometry x="-20" y="268.5" width="65" height="65" as="geometry" />
        </mxCell>
        <mxCell id="udor24Wlc1t1U40zxqAk-52" value="MQ Broker" style="sketch=0;outlineConnect=0;fontColor=#232F3E;gradientColor=none;fillColor=#E7157B;strokeColor=none;dashed=0;verticalLabelPosition=bottom;verticalAlign=top;align=center;html=1;fontSize=12;fontStyle=0;aspect=fixed;pointerEvents=1;shape=mxgraph.aws4.mq_broker;" vertex="1" parent="1">
          <mxGeometry x="680" y="478" width="78" height="69" as="geometry" />
        </mxCell>
        <mxCell id="udor24Wlc1t1U40zxqAk-60" style="rounded=0;orthogonalLoop=1;jettySize=auto;html=1;strokeWidth=2;" edge="1" parent="1" source="udor24Wlc1t1U40zxqAk-54" target="udor24Wlc1t1U40zxqAk-12">
          <mxGeometry relative="1" as="geometry" />
        </mxCell>
        <mxCell id="udor24Wlc1t1U40zxqAk-54" value="External APIs" style="aspect=fixed;sketch=0;html=1;dashed=0;whitespace=wrap;verticalLabelPosition=bottom;verticalAlign=top;fillColor=#2875E2;strokeColor=#ffffff;points=[[0.005,0.63,0],[0.1,0.2,0],[0.9,0.2,0],[0.5,0,0],[0.995,0.63,0],[0.72,0.99,0],[0.5,1,0],[0.28,0.99,0]];shape=mxgraph.kubernetes.icon2;kubernetesLabel=1;prIcon=api" vertex="1" parent="1">
          <mxGeometry x="-32.07999999999999" y="460" width="77.08" height="74" as="geometry" />
        </mxCell>
        <mxCell id="udor24Wlc1t1U40zxqAk-55" value="&lt;div&gt;Database&lt;/div&gt;&lt;div&gt;&lt;br&gt;&lt;/div&gt;" style="sketch=0;points=[[0,0,0],[0.25,0,0],[0.5,0,0],[0.75,0,0],[1,0,0],[0,1,0],[0.25,1,0],[0.5,1,0],[0.75,1,0],[1,1,0],[0,0.25,0],[0,0.5,0],[0,0.75,0],[1,0.25,0],[1,0.5,0],[1,0.75,0]];outlineConnect=0;fontColor=#232F3E;fillColor=#C925D1;strokeColor=#ffffff;dashed=0;verticalLabelPosition=bottom;verticalAlign=top;align=center;html=1;fontSize=12;fontStyle=0;aspect=fixed;shape=mxgraph.aws4.resourceIcon;resIcon=mxgraph.aws4.dynamodb;" vertex="1" parent="1">
          <mxGeometry x="680" y="279.5" width="78" height="78" as="geometry" />
        </mxCell>
        <mxCell id="udor24Wlc1t1U40zxqAk-56" value="Java Hexagonal Architecture" style="text;strokeColor=none;fillColor=none;html=1;fontSize=24;fontStyle=1;verticalAlign=middle;align=center;" vertex="1" parent="1">
          <mxGeometry x="325" y="20" width="100" height="40" as="geometry" />
        </mxCell>
        <mxCell id="udor24Wlc1t1U40zxqAk-59" style="rounded=0;orthogonalLoop=1;jettySize=auto;html=1;strokeWidth=2;" edge="1" parent="1" source="udor24Wlc1t1U40zxqAk-36" target="udor24Wlc1t1U40zxqAk-52">
          <mxGeometry relative="1" as="geometry" />
        </mxCell>
      </root>
    </mxGraphModel>
  </diagram>
</mxfile>
